<svg width="266" height="44" viewBox="0 0 266 44" fill="none" xmlns="http://www.w3.org/2000/svg">
<g filter="url(#filter0_d_2_2)">
<path d="M26.5 35.5L11.5 20.5V28H4V0.5H11.5V10.5H19V0.5H26.5V18H21.5L26.5 23V35.5ZM29 28V0.5H36.5V28H29ZM39 30.5V0.5H46.5V10.5L51.5 5.5L56.5 10.5V0.5H64V30.5L51.5 18L39 30.5ZM66.5 28V0.5H74V28H66.5ZM86.5 30.5V0.5H94V10.5L99 5.5L104 10.5V0.5H111.5V30.5L99 18L86.5 30.5ZM114 28V0.5H136.5V8H121.5V10.5H136.5V18H121.5V20.5H136.5V28H114ZM154 10.5V8H146.5V10.5H154ZM139 28V0.5H161.5V28H154V18H146.5V28H139ZM171.5 28V8H164V0.5H186.5V8H179V28H171.5ZM211.5 35.5L204 28V18H196.5V28H189V0.5H196.5V10.5H204V0.5H211.5V35.5ZM214 28V0.5H236.5V8H221.5V10.5H236.5V18H221.5V20.5H236.5V28H214ZM254 10.5V8H246.5V10.5H254ZM261.5 33L246.5 18V28H239V0.5H261.5V18H256.5L261.5 23V33Z" fill="black"/>
</g>
<defs>
<filter id="filter0_d_2_2" x="0" y="0.5" width="265.5" height="43" filterUnits="userSpaceOnUse" color-interpolation-filters="sRGB">
<feFlood flood-opacity="0" result="BackgroundImageFix"/>
<feColorMatrix in="SourceAlpha" type="matrix" values="0 0 0 0 0 0 0 0 0 0 0 0 0 0 0 0 0 0 127 0" result="hardAlpha"/>
<feOffset dy="4"/>
<feGaussianBlur stdDeviation="2"/>
<feComposite in2="hardAlpha" operator="out"/>
<feColorMatrix type="matrix" values="0 0 0 0 0 0 0 0 0 0 0 0 0 0 0 0 0 0 0.25 0"/>
<feBlend mode="normal" in2="BackgroundImageFix" result="effect1_dropShadow_2_2"/>
<feBlend mode="normal" in="SourceGraphic" in2="effect1_dropShadow_2_2" result="shape"/>
</filter>
</defs>
</svg>
