<svg width="389" height="45" viewBox="0 0 389 45" fill="none" xmlns="http://www.w3.org/2000/svg">
<path d="M0.448 45V34.952H3.136V10.312H0.448V0.199997H18.112V10.312H15.424V16.648L21.76 10.312H20.672V0.199997H41.92V10.312H38.208L26.048 22.472L38.528 34.952H41.92V45H20.672V34.952H21.888L17.536 30.6L15.488 32.648V34.952H18.176V45H0.448ZM17.088 43.912V35.976H14.336V32.392L17.536 29.192L24.32 35.976H21.76V43.912H40.768V35.976H38.08L24.576 22.472L37.824 9.224H40.832V1.288H21.76V9.224H24.32L14.336 19.208V9.224H17.024V1.288H1.536V9.224H4.16V35.976H1.536V43.912H17.088ZM2.944 42.504V37.384H5.568V7.816H2.944V2.696H15.68V7.816H12.992V22.664L27.84 7.816H23.104V2.696H39.424V7.816H36.736L21.952 22.6L36.736 37.384H39.424V42.504H23.104V37.384H27.904L17.6 27.016L12.992 31.688V37.384H15.744V42.504H2.944ZM47.719 45V34.952H50.407V10.312H47.719V0.199997H65.383V10.312H62.695V34.952H65.383V45H47.719ZM64.295 43.912V36.04H61.543V9.224H64.295V1.288H48.807V9.224H51.495V36.04H48.807V43.912H64.295ZM50.215 42.504V37.384H52.839V7.816H50.215V2.696H62.951V7.816H60.263V37.384H62.951V42.504H50.215ZM71.198 10.312V0.199997H89.886V10.312H88.094L93.086 25.288L97.95 10.312H96.478V0.199997H116.574V10.312H115.102L120.03 25.096L124.958 10.312H123.422V0.199997H141.79V10.312H138.27L130.078 34.952H131.55V45H108.638V34.952H110.11L106.526 24.776L102.942 34.952H104.414V45H81.502V34.952H82.974L74.782 10.312H71.198ZM75.294 9.224L84.446 35.976H82.59V43.912H103.326V35.976H101.662L106.526 22.536L111.39 35.976H109.726V43.912H130.462V35.976H128.606L137.758 9.224H140.702V1.288H124.51V9.224H126.238L120.03 27.976L113.758 9.224H115.422V1.288H97.566V9.224H99.294L93.022 27.976L86.814 9.224H88.862V1.288H72.286V9.224H75.294ZM73.694 7.816V2.696H87.454V7.816H84.638L93.022 33.032L101.47 7.816H98.91V2.696H114.078V7.816H111.582L120.03 33.032L128.414 7.816H125.918V2.696H139.358V7.816H136.286L126.43 37.384H129.118V42.504H111.134V37.384H113.63L106.526 16.136L99.422 37.384H101.982V42.504H83.934V37.384H86.622L76.766 7.816H73.694ZM148.094 45V34.952H150.782V10.312H148.094V0.199997H165.758V10.312H163.07V34.952H165.758V45H148.094ZM164.67 43.912V36.04H161.918V9.224H164.67V1.288H149.182V9.224H151.87V36.04H149.182V43.912H164.67ZM150.59 42.504V37.384H153.214V7.816H150.59V2.696H163.326V7.816H160.638V37.384H163.326V42.504H150.59ZM187.834 12.936V0.199997H225.658V12.936H215.546V10.312H212.922V34.952H215.546V45H197.882V34.952H200.57V10.312H197.882V12.936H187.834ZM196.794 11.912V9.224H201.658V35.976H198.97V43.912H214.522V35.976H211.834V9.224H216.698V11.912H224.569V1.288H188.922V11.912H196.794ZM190.33 10.504V2.696H223.226V10.504H218.042V7.816H210.49V37.384H213.114V42.504H200.378V37.384H203.066V7.816H195.385V10.504H190.33ZM228.813 37.832V7.368L235.981 0.199997H255.693L262.861 7.368V37.832L255.693 45H235.981L228.813 37.832ZM236.365 43.848H255.373L261.773 37.448V7.816L255.245 1.288H236.365L229.965 7.688V37.448L236.365 43.848ZM231.309 36.616V8.584L237.197 2.696H254.541L260.429 8.584V36.616L254.541 42.504H237.197L231.309 36.616ZM241.421 37.384H250.253L253.005 34.632V10.632L250.189 7.816H241.421L238.669 10.568V34.632L241.421 37.384ZM240.013 33.8V11.4L242.253 9.16H249.421L251.661 11.4V33.8L249.421 36.04H242.253L240.013 33.8ZM242.573 34.952H249.101L250.509 33.544V11.72L249.101 10.312H242.509L241.101 11.72V33.48L242.573 34.952ZM265.573 45V34.952H268.261V10.312H265.573V0.199997H293.285L300.453 7.368V37.832L293.285 45H265.573ZM292.837 43.912L299.365 37.384V7.816L292.837 1.288H266.661V9.224H269.285V35.976H266.661V43.912H292.837ZM268.069 42.504V37.384H270.693V7.816H268.069V2.696H292.069L297.957 8.584V36.616L292.069 42.504H268.069ZM287.845 37.384L290.597 34.632V10.568L287.845 7.816H278.117V37.384H287.845ZM279.461 35.976V9.224H287.141L289.253 11.336V33.672L286.949 35.976H279.461ZM286.693 34.952L288.165 33.48V11.72L286.757 10.312H280.549V34.952H286.693ZM304.032 45V34.952H306.72L314.912 10.312H312.928V0.199997H336.736V10.312H334.496L342.688 34.952H345.312V45H328.16V34.952H329.696L328.992 32.84H320.416L319.648 34.952H321.184V45H304.032ZM320.096 43.912V35.976H318.432L319.456 31.816H329.952L330.912 35.976H329.248V43.912H344.288V35.976H341.728L333.152 9.224H335.648V1.288H314.016V9.224H316.192L307.616 35.976H305.12V43.912H320.096ZM306.528 42.504V37.384H308.448L318.24 7.816H315.424V2.696H334.304V7.816H331.168L340.96 37.384H342.88V42.504H330.656V37.384H333.088L330.784 30.408H318.56L316.256 37.384H318.688V42.504H306.528ZM329.504 26.696L324.704 12.104L319.776 26.696H329.504ZM321.952 25.416L324.704 16.52L327.392 25.416H321.952ZM326.176 24.264L324.704 19.976L323.232 24.264H326.176ZM339.073 10.312V0.199997H360.321V10.312H359.937L363.969 14.28L368.001 10.312H367.489V0.199997H388.161V10.312H384.513L370.049 24.776V34.952H372.737V45H355.137V34.952H357.761V24.776L343.297 10.312H339.073ZM343.745 9.224L358.849 24.328V35.976H356.161V43.976H371.713V35.976H368.961V24.328L384.129 9.224H387.073V1.288H368.577V9.224H370.561L363.969 15.816L357.377 9.224H359.233V1.288H340.161V9.224H343.745ZM341.569 7.816V2.696H357.825V7.816H353.921L363.905 17.8L373.889 7.816H369.985V2.696H385.729V7.816H383.681L367.617 23.752V37.384H370.305V43.016H357.569V37.384H360.257V23.752L344.257 7.816H341.569Z" fill="#44413C"/>
</svg>
