<svg width="256" height="256" viewBox="0 0 256 256" fill="none" xmlns="http://www.w3.org/2000/svg">
<path d="M248 83.532C248 62.96 238.452 45.164 224.532 36.376C206.148 24.252 169.78 15.996 127.908 16C79.712 15.996 38.828 26.928 24.252 42.1C14.36 51.824 8 66.756 8 83.536C8 93.368 46.592 96.608 72.148 93.284C71.764 93.956 71.44 94.656 71.1 95.348C63.028 105.944 56.48 125.192 52.328 139.896C36.272 152.764 25.792 177.708 25.792 177.708V206.848C25.7846 211.125 27.4761 215.229 30.4946 218.259C33.513 221.289 37.6113 222.996 41.888 223.004H42.508V223.852C42.5016 228.128 44.1936 232.232 47.212 235.26C50.2303 238.289 54.328 239.996 58.604 240.004H80.828C82.9454 240 85.0414 239.58 86.9963 238.766C88.9511 237.952 90.7265 236.761 92.2212 235.262C93.7159 233.762 94.9004 231.982 95.7074 230.025C96.5143 228.067 96.9277 225.969 96.924 223.852V223H159.068V223.848C159.062 228.123 160.753 232.226 163.771 235.255C166.788 238.284 170.885 239.99 175.16 240H197.384C199.501 239.996 201.597 239.576 203.552 238.762C205.507 237.948 207.283 236.757 208.777 235.258C210.272 233.758 211.456 231.978 212.263 230.021C213.07 228.063 213.484 225.965 213.48 223.848V223H214.1C216.218 222.996 218.314 222.576 220.27 221.762C222.225 220.948 224.001 219.757 225.496 218.256C226.991 216.756 228.176 214.976 228.983 213.018C229.79 211.06 230.204 208.962 230.2 206.844V177.704C230.2 177.704 219.716 152.756 203.66 139.892C199.692 125.84 193.536 107.632 185.952 96.792C185.466 95.6147 184.916 94.465 184.304 93.348C209.872 96.568 248 93.3 248 83.532ZM127.908 50.368C136.204 50.368 144.2 50.768 151.952 51.392C150.724 53.692 149.412 55.808 148.32 56.468C144.468 58.792 136.684 60.24 128 60.24C119.316 60.24 111.528 58.796 107.676 56.468C106.584 55.804 105.268 53.684 104.044 51.376C111.982 50.7212 119.943 50.3849 127.908 50.368ZM76.88 40.316C77.908 38.724 80.856 38.04 84.004 38.04C87.552 38.04 91.356 38.904 92.952 40.316C97.328 44.164 100.636 56.884 105.608 59.892C110.404 62.792 119.2 64.24 128 64.24C136.8 64.24 145.588 62.792 150.388 59.892C155.364 56.884 158.672 44.164 163.044 40.316C164.644 38.904 168.448 38.04 171.996 38.04C175.144 38.04 178.096 38.72 179.124 40.316C183.964 47.824 173.528 65.168 163.816 74.28C153.62 68.904 141.252 65.82 128.576 65.82C115.656 65.82 102.964 69.024 92.508 74.596C82.716 65.576 71.98 47.912 76.88 40.316ZM184.516 101.952C186.32 108.704 185.62 115.444 182.948 121.692L170.84 101.932L165.588 103.704L177.336 130.768C167.628 142.38 149.924 150.604 127.516 150.604C88.848 150.604 64.68 126.192 71.8 101.956C77.54 82.432 102.548 69.188 128.592 69.188C154.636 69.188 179.292 82.428 184.516 101.952Z" fill="black"/>
<path d="M128.36 86.828C116.196 86.828 105.456 93.54 104.276 102.528C102.972 112.384 113.504 121.116 127.908 121.116C142.308 121.116 153.064 112.38 152.024 102.528C151.08 93.54 140.512 86.828 128.36 86.828ZM121.38 82.004C125.196 84.476 131.58 84.476 135.464 82.004C139.24 79.6 139.056 75.844 135.24 73.6C131.52 71.42 125.592 71.42 121.82 73.6C117.936 75.844 117.664 79.6 121.38 82.004ZM154.36 90.672C160.116 90.672 164.256 87.66 163.612 84.068C163 80.612 158.148 77.908 152.776 77.908C147.388 77.908 143.228 80.62 143.468 84.068C143.716 87.66 148.584 90.672 154.36 90.672Z" fill="black"/>
<path d="M146.128 122.608C146.496 127.896 152.492 132.364 159.544 132.364C166.56 132.364 171.464 127.896 170.52 122.608C169.612 117.56 163.664 113.64 157.212 113.64C150.736 113.64 145.78 117.564 146.128 122.608ZM136.584 125.708C131.732 122.016 124.036 122.016 119.1 125.708C113.988 129.52 113.512 135.984 118.34 140.168C123.356 144.5 131.836 144.5 136.952 140.168C141.904 135.984 141.592 129.516 136.584 125.708ZM98.7916 113.64C92.3236 113.64 86.2796 117.556 85.2396 122.608C84.1556 127.884 88.9316 132.364 95.9676 132.364C103.004 132.364 109.132 127.884 109.636 122.608C110.112 117.56 105.256 113.64 98.7916 113.64ZM96.0756 107.06C100.972 103.952 101.676 99.112 97.9036 96.236C94.2356 93.448 87.5396 93.448 82.7116 96.236C77.7476 99.112 76.4476 103.952 80.0436 107.06C83.7516 110.264 91.0356 110.264 96.0756 107.06ZM102.252 90.672C108.008 90.672 112.98 87.656 113.316 84.072C113.652 80.612 109.552 77.908 104.176 77.908C98.7916 77.908 93.8836 80.612 93.1756 84.072C92.4356 87.656 96.4836 90.672 102.252 90.672Z" fill="black"/>
</svg>
